# xmcd
#
# Track frame offsets: 
#        150
#        4575
#        17360
#        33522
#        48025
#        67245
#        87787
#        94397
#        109112
#        131777
#        148897
#        151495
#        167165
#        182955
#        184642
#        200359
#        219817
#
# Disc length: 3142 seconds
#
# Revision: 3
# Processed by: cddbd v1.5.2PL0 Copyright (c) Steve Scherf et al.
# Submitted via: ExactAudioCopy v0.90b4
#
DISCID=e70c4411
DTITLE=Rasco - Hostile Environment
DYEAR=2001
DGENRE=Hip-Hop
TTITLE0=Intro
TTITLE1=Hostile Environment
TTITLE2=Laylow
TTITLE3=No Guarantees (My People)
TTITLE4=Who Woulda Thought (Feat. El Da Sensai)
TTITLE5=This Is It Yall
TTITLE6=Interlude
TTITLE7=The Jamm
TTITLE8=Message From The Bottle
TTITLE9=Thin Line
TTITLE10=Living Voices
TTITLE11=We Live This (Feat. Protest)
TTITLE12=Rockin' It
TTITLE13=Interlude
TTITLE14=Sunshine (Ayanna)
TTITLE15=Gunz Still Hot (Remix) (Feat. Ed O.G. and Reks)
TTITLE16=What Yall Want (Feat. Planet Asia and 427)
EXTD=
EXTT0=
EXTT1=
EXTT2=
EXTT3=
EXTT4=
EXTT5=
EXTT6=
EXTT7=
EXTT8=
EXTT9=
EXTT10=
EXTT11=
EXTT12=
EXTT13=
EXTT14=
EXTT15=
EXTT16=
PLAYORDER=
